<svg width="70" height="70" viewBox="0 0 70 70" fill="none" xmlns="http://www.w3.org/2000/svg" xmlns:xlink="http://www.w3.org/1999/xlink">
<path d="M60.958,28.729L62.679,57.575C62.738,58.362 62.358,58.888 62.154,59.121C61.921,59.383 61.425,59.792 60.608,59.792L52.646,59.792L58.946,28.729L60.958,28.729ZM64.167,17.5L64.138,17.558C64.196,18.258 64.138,18.987 63.963,19.717L42.467,59.179C41.767,62.125 39.142,64.167 36.108,64.167L60.608,64.167C64.371,64.167 67.346,60.987 67.054,57.225L64.167,17.5Z" fill="#30876D"/>
<path d="M33.396,6.533C33.688,5.367 32.958,4.171 31.792,3.879C30.625,3.617 29.429,4.317 29.138,5.483L27.679,11.521L32.171,11.521L33.396,6.533Z" fill="#30876D"/>
<path d="M52.646,6.446C52.908,5.25 52.15,4.112 50.954,3.85C49.787,3.587 48.621,4.346 48.358,5.542L47.046,11.579L51.537,11.579L52.646,6.446Z" fill="#30876D"/>
<path d="M63.642,15.546C62.679,13.212 60.404,11.55 57.604,11.55L51.538,11.55L49.904,19.104C49.671,20.125 48.767,20.825 47.775,20.825C47.629,20.825 47.454,20.825 47.308,20.767C46.142,20.504 45.383,19.337 45.617,18.171L47.046,11.521L32.171,11.521L30.333,19.104C30.1,20.096 29.196,20.767 28.204,20.767C28.029,20.767 27.854,20.737 27.679,20.708C26.513,20.417 25.783,19.25 26.075,18.054L27.65,11.492L21.729,11.492C18.871,11.492 16.333,13.358 15.488,16.1L3.208,55.621C1.925,59.85 5.046,64.167 9.45,64.167L47.775,64.167C50.808,64.167 53.433,62.125 54.133,59.179L63.963,19.717C64.138,18.987 64.196,18.258 64.138,17.558C64.079,16.858 63.933,16.158 63.642,15.546ZM42.875,48.854L19.542,48.854C18.346,48.854 17.354,47.862 17.354,46.667C17.354,45.471 18.346,44.479 19.542,44.479L42.875,44.479C44.071,44.479 45.063,45.471 45.063,46.667C45.063,47.862 44.071,48.854 42.875,48.854ZM45.792,37.187L22.458,37.187C21.263,37.187 20.271,36.196 20.271,35C20.271,33.804 21.263,32.812 22.458,32.812L45.792,32.812C46.988,32.812 47.979,33.804 47.979,35C47.979,36.196 46.988,37.187 45.792,37.187Z" fill="#30876D"/>
</svg>
