<svg width="70" height="70" viewBox="0 0 70 70" fill="none" xmlns="http://www.w3.org/2000/svg" xmlns:xlink="http://www.w3.org/1999/xlink">
<path d="M26.25,5.833C18.608,5.833 12.396,12.046 12.396,19.687C12.396,27.183 18.258,33.25 25.9,33.513C26.133,33.483 26.367,33.483 26.542,33.513C26.6,33.513 26.629,33.513 26.687,33.513C26.717,33.513 26.717,33.513 26.746,33.513C34.212,33.25 40.075,27.183 40.104,19.687C40.104,12.046 33.892,5.833 26.25,5.833Z" fill="#30876D"/>
<path d="M41.067,41.271C32.929,35.846 19.658,35.846 11.463,41.271C7.758,43.75 5.717,47.104 5.717,50.692C5.717,54.279 7.758,57.604 11.433,60.054C15.517,62.796 20.883,64.167 26.25,64.167C31.617,64.167 36.983,62.796 41.067,60.054C44.742,57.575 46.783,54.25 46.783,50.633C46.754,47.046 44.742,43.721 41.067,41.271Z" fill="#30876D"/>
<path d="M58.304,21.408C58.771,27.067 54.746,32.025 49.175,32.696C49.146,32.696 49.146,32.696 49.117,32.696L49.029,32.696C48.854,32.696 48.679,32.696 48.533,32.754C45.704,32.9 43.108,31.996 41.154,30.333C44.158,27.65 45.879,23.625 45.529,19.25C45.325,16.888 44.508,14.729 43.283,12.892C44.392,12.338 45.675,11.988 46.988,11.871C52.704,11.375 57.808,15.633 58.304,21.408Z" fill="#30876D"/>
<path d="M64.138,48.387C63.904,51.217 62.096,53.667 59.063,55.329C56.146,56.933 52.471,57.692 48.825,57.604C50.925,55.708 52.15,53.346 52.383,50.837C52.675,47.221 50.954,43.75 47.513,40.979C45.558,39.433 43.283,38.208 40.804,37.304C47.25,35.437 55.358,36.692 60.346,40.717C63.029,42.875 64.4,45.587 64.138,48.387Z" fill="#30876D"/>
</svg>
