<svg width="70" height="70" viewBox="0 0 70 70" fill="none" xmlns="http://www.w3.org/2000/svg" xmlns:xlink="http://www.w3.org/1999/xlink">
<path d="M24.179,18.346C22.954,18.346 21.992,17.354 21.992,16.158L21.992,8.021C21.992,6.825 22.954,5.833 24.179,5.833C25.404,5.833 26.367,6.825 26.367,8.021L26.367,16.129C26.367,17.354 25.404,18.346 24.179,18.346Z" fill="#30876D"/>
<path d="M45.821,18.346C44.596,18.346 43.633,17.354 43.633,16.158L43.633,8.021C43.633,6.796 44.625,5.833 45.821,5.833C47.046,5.833 48.008,6.825 48.008,8.021L48.008,16.129C48.008,17.354 47.046,18.346 45.821,18.346Z" fill="#30876D"/>
<path d="M62.708,46.142C62.708,46.579 62.562,47.017 62.183,47.396C57.954,51.654 50.429,59.238 46.112,63.583C45.733,63.992 45.237,64.167 44.742,64.167C43.779,64.167 42.846,63.408 42.846,62.3L42.846,52.092C42.846,47.833 46.462,44.304 50.896,44.304C53.667,44.275 57.517,44.275 60.812,44.275C61.95,44.275 62.708,45.179 62.708,46.142Z" fill="#30876D"/>
<path d="M62.708,46.142C62.708,46.579 62.562,47.017 62.183,47.396C57.954,51.654 50.429,59.238 46.112,63.583C45.733,63.992 45.237,64.167 44.742,64.167C43.779,64.167 42.846,63.408 42.846,62.3L42.846,52.092C42.846,47.833 46.462,44.304 50.896,44.304C53.667,44.275 57.517,44.275 60.812,44.275C61.95,44.275 62.708,45.179 62.708,46.142Z" fill="#30876D"/>
<path d="M57.079,13.125C55.154,11.696 52.383,13.067 52.383,15.487L52.383,15.779C52.383,19.192 49.933,22.342 46.521,22.692C42.583,23.1 39.258,20.008 39.258,16.158L39.258,13.125C39.258,11.521 37.946,10.208 36.342,10.208L33.658,10.208C32.054,10.208 30.742,11.521 30.742,13.125L30.742,15.779C30.742,18.346 29.371,20.737 27.242,21.904C27.125,21.992 27.008,22.05 26.892,22.108C26.862,22.108 26.862,22.137 26.833,22.137C26.629,22.225 26.425,22.312 26.192,22.4C26.133,22.429 26.075,22.429 26.017,22.458C25.667,22.575 25.287,22.662 24.879,22.692L24.85,22.692C24.412,22.75 23.946,22.75 23.508,22.692L23.479,22.692C23.071,22.662 22.692,22.575 22.342,22.458C22.05,22.371 21.758,22.254 21.467,22.108C19.192,21.087 17.617,18.812 17.617,16.158L17.617,15.487C17.617,13.242 15.225,11.9 13.329,12.862C13.3,12.892 13.271,12.892 13.242,12.921L13.212,12.921C13.008,13.067 12.833,13.212 12.629,13.358C12.308,13.621 11.987,13.883 11.696,14.175C11.492,14.379 11.287,14.583 11.112,14.787C10.879,15.021 10.675,15.254 10.471,15.517C10.325,15.692 10.15,15.867 10.033,16.071C9.887,16.246 9.771,16.45 9.654,16.625C9.625,16.654 9.596,16.683 9.567,16.742C9.304,17.121 9.071,17.558 8.867,17.967C8.808,18.025 8.779,18.054 8.779,18.112C8.604,18.462 8.429,18.812 8.312,19.192C8.225,19.337 8.196,19.454 8.137,19.6C8.079,19.717 8.05,19.862 7.992,19.979C7.904,20.271 7.817,20.592 7.729,20.912C7.612,21.321 7.525,21.758 7.467,22.196C7.408,22.517 7.379,22.837 7.35,23.187C7.321,23.596 7.292,24.004 7.292,24.412L7.292,49.963C7.292,57.808 13.65,64.167 21.496,64.167L35.554,64.167C37.158,64.167 38.471,62.854 38.471,61.25L38.471,52.092C38.471,45.383 44.042,39.929 50.896,39.929C52.442,39.9 56.204,39.9 59.792,39.9C61.396,39.9 62.708,38.588 62.708,36.983L62.708,24.412C62.708,19.775 60.492,15.721 57.079,13.125ZM32.462,46.404C32.2,47.279 31.383,47.892 30.421,47.892L19.804,47.892C19.658,47.892 19.542,47.892 19.425,47.833C18.375,47.688 17.617,46.783 17.617,45.704C17.617,44.479 18.579,43.488 19.804,43.488L30.421,43.488C31.617,43.488 32.608,44.479 32.608,45.704C32.608,45.938 32.579,46.2 32.462,46.404ZM40.571,35.583C40.308,36.458 39.492,37.071 38.529,37.071L19.804,37.071C19.658,37.071 19.542,37.071 19.425,37.013C18.375,36.867 17.617,35.963 17.617,34.883C17.617,33.658 18.579,32.667 19.804,32.667L38.529,32.667C39.754,32.667 40.717,33.658 40.717,34.883C40.717,35.117 40.687,35.379 40.571,35.583Z" fill="#30876D"/>
</svg>
