<svg width="60" height="60" viewBox="0 0 60 60" fill="none" xmlns="http://www.w3.org/2000/svg" xmlns:xlink="http://www.w3.org/1999/xlink">
<path d="M54.754,17.362L35.65,2.079C31.917,-0.896 26.083,-0.925 22.379,2.05L3.275,17.362C0.533,19.55 -1.129,23.925 -0.546,27.367L3.129,49.358C3.975,54.287 8.554,58.167 13.542,58.167L44.458,58.167C49.387,58.167 54.054,54.2 54.9,49.329L58.575,27.337C59.1,23.925 57.437,19.55 54.754,17.362ZM31.187,46.5C31.187,47.696 30.196,48.687 29,48.687C27.804,48.687 26.812,47.696 26.812,46.5L26.812,37.75C26.812,36.554 27.804,35.562 29,35.562C30.196,35.562 31.187,36.554 31.187,37.75L31.187,46.5Z" fill="#000000"/>
</svg>
